# xmcd
#
# Track frame offsets:
#	150
#	17754
#	32870
#	49173
#	66914
#	82022
#	98495
#	116054
#	132196
#	147790
#	161669
#	175100
#	191074
#	208474
#	226086
#
# Disc length: 3236 seconds
#
# Revision: 4
# Processed by: cddbd v1.5.2PL0 Copyright (c) Steve Scherf et al.
# Submitted via: EZCDAudioConverter 2.4.0.1
#
DISCID=d20ca20f
DTITLE=Bruno e Marrone - Meu presente e voce
DYEAR=2005
DGENRE=Sertanejo
TTITLE0=Choram as rosas
TTITLE1=Cuida do nosso amor
TTITLE2=Quer casar comigo?
TTITLE3=Por um gole a mais
TTITLE4=Faz mais, Faz
TTITLE5=Porque choras?
TTITLE6=Por te amar Demais
TTITLE7=Vai sofrer pra la
TTITLE8=Que percar que nada
TTITLE9=Nao tem outro jeito
TTITLE10=A Culpa e sua
TTITLE11=Raridade
TTITLE12=Meu presente e voce
TTITLE13=Uma grande mentira
TTITLE14=Se nao for por amor
EXTD=
EXTT0=
EXTT1=
EXTT2=
EXTT3=
EXTT4=
EXTT5=
EXTT6=
EXTT7=
EXTT8=
EXTT9=
EXTT10=
EXTT11=
EXTT12=
EXTT13=
EXTT14=
PLAYORDER=
